<svg width="400" height="400" viewBox="0 0 400 400" xmlns="http://www.w3.org/2000/svg">
<defs>
    <filter id="shadow" x="-20%" y="-20%" width="140%" height="140%">
        <feDropShadow dx="2" dy="4" stdDeviation="3" flood-opacity="0.3"/>
    </filter>
    <linearGradient id="sky-gradient" x1="0%" y1="0%" x2="0%" y2="100%">
        <stop offset="0%" stop-color="#87CEEB"/><stop offset="100%" stop-color="#E0F4FF"/>
    </linearGradient>
</defs>
<rect width="400" height="400" fill="#F0F8FF"/>
<polygon points="140,120 110,60 170,100" fill="#8B4513" filter="url(#shadow)"/>
<polygon points="260,120 290,60 230,100" fill="#8B4513" filter="url(#shadow)"/>
<polygon points="140,115 120,75 160,100" fill="#FFB6C1"/>
<polygon points="260,115 280,75 240,100" fill="#FFB6C1"/>
<ellipse cx="200" cy="200" rx="100" ry="90" fill="#8B4513" filter="url(#shadow)"/>
<line x1="160" y1="210" x2="80" y2="200" stroke="#000" stroke-width="2" opacity="0.5"/>
<line x1="240" y1="210" x2="320" y2="200" stroke="#000" stroke-width="2" opacity="0.5"/>
<line x1="160" y1="220" x2="80" y2="210" stroke="#000" stroke-width="2" opacity="0.5"/>
<line x1="240" y1="220" x2="320" y2="210" stroke="#000" stroke-width="2" opacity="0.5"/>
<line x1="160" y1="230" x2="80" y2="220" stroke="#000" stroke-width="2" opacity="0.5"/>
<line x1="240" y1="230" x2="320" y2="220" stroke="#000" stroke-width="2" opacity="0.5"/>
<ellipse cx="165" cy="185" rx="20" ry="25" fill="#FFF"/>
<ellipse cx="235" cy="185" rx="20" ry="25" fill="#FFF"/>
<ellipse cx="165" cy="185" rx="5" ry="18" fill="#000"/>
<ellipse cx="235" cy="185" rx="5" ry="18" fill="#000"/>
<polygon points="190,225 210,225 200,235" fill="#FFB6C1"/>
<path d="M190 235 Q185 245 175 240" stroke="#000" stroke-width="2" fill="none"/>
<path d="M210 235 Q215 245 225 240" stroke="#000" stroke-width="2" fill="none"/>
</svg>